<svg 
 xmlns="http://www.w3.org/2000/svg"
 xmlns:xlink="http://www.w3.org/1999/xlink"
 width="60px" height="60px">
<path fill-rule="evenodd"  fill="rgb(228, 228, 228)"
 d="M59.985,30.475 C59.985,46.770 46.775,59.979 30.480,59.979 C14.186,59.979 0.976,46.770 0.976,30.475 C0.976,14.180 14.186,0.971 30.480,0.971 C46.775,0.971 59.985,14.180 59.985,30.475 Z"/>
<path fill-rule="evenodd"  fill="rgb(57, 84, 106)"
 d="M43.209,28.260 C40.842,28.260 38.924,26.342 38.924,23.975 C38.924,21.609 40.842,19.691 43.209,19.691 C45.575,19.691 47.493,21.609 47.493,23.975 C47.493,26.342 45.575,28.260 43.209,28.260 ZM35.413,46.313 L25.547,46.313 C24.507,46.313 23.664,45.470 23.664,44.429 C23.664,43.389 24.507,42.545 25.547,42.545 L35.413,42.545 C36.454,42.545 37.297,43.389 37.297,44.429 C37.297,45.470 36.454,46.313 35.413,46.313 ZM17.752,28.260 C15.386,28.260 13.467,26.342 13.467,23.975 C13.467,21.609 15.386,19.691 17.752,19.691 C20.118,19.691 22.037,21.609 22.037,23.975 C22.037,26.342 20.118,28.260 17.752,28.260 Z"/>
</svg>