<svg 
 xmlns="http://www.w3.org/2000/svg"
 xmlns:xlink="http://www.w3.org/1999/xlink"
 width="32px" height="32px">
<path fill-rule="evenodd"  fill="rgb(179, 179, 179)"
 d="M16.000,-0.000 C24.836,-0.000 32.000,7.163 32.000,16.000 C32.000,24.837 24.836,32.000 16.000,32.000 C7.163,32.000 -0.000,24.837 -0.000,16.000 C-0.000,7.163 7.163,-0.000 16.000,-0.000 Z"/>
<path fill-rule="evenodd"  fill="rgb(255, 255, 255)"
 d="M18.055,15.985 L22.541,20.471 C23.113,21.043 23.113,21.969 22.541,22.541 C21.969,23.113 21.042,23.113 20.471,22.541 L15.985,18.055 L11.498,22.541 C10.927,23.113 10.000,23.113 9.428,22.541 C8.856,21.969 8.856,21.043 9.428,20.471 L13.914,15.985 L9.428,11.498 C8.856,10.927 8.856,10.000 9.428,9.428 C10.000,8.856 10.927,8.856 11.498,9.428 L15.985,13.914 L20.471,9.428 C21.042,8.856 21.969,8.856 22.541,9.428 C23.113,10.000 23.113,10.927 22.541,11.498 L18.055,15.985 Z"/>
</svg>