<svg 
 xmlns="http://www.w3.org/2000/svg"
 xmlns:xlink="http://www.w3.org/1999/xlink"
 width="60px" height="60px">
<path fill-rule="evenodd"  fill="rgb(251, 211, 97)"
 d="M59.985,30.486 C59.985,46.780 46.775,59.990 30.481,59.990 C14.186,59.990 0.976,46.780 0.976,30.486 C0.976,14.191 14.186,0.981 30.481,0.981 C46.775,0.981 59.985,14.191 59.985,30.486 Z"/>
<path fill-rule="evenodd"  fill="rgb(57, 84, 106)"
 d="M43.209,28.271 C40.843,28.271 38.924,26.352 38.924,23.986 C38.924,21.619 40.843,19.701 43.209,19.701 C45.576,19.701 47.494,21.619 47.494,23.986 C47.494,26.352 45.576,28.271 43.209,28.271 ZM17.752,28.271 C15.386,28.271 13.467,26.352 13.467,23.986 C13.467,21.619 15.386,19.701 17.752,19.701 C20.119,19.701 22.037,21.619 22.037,23.986 C22.037,26.352 20.119,28.271 17.752,28.271 ZM42.598,45.309 L42.399,45.508 C39.756,48.170 36.063,49.817 32.008,49.817 L28.948,49.817 C24.803,49.817 21.037,48.079 18.358,45.309 C15.823,42.666 14.248,39.063 14.248,35.117 L46.708,35.117 C46.708,39.063 45.133,42.666 42.598,45.309 Z"/>
</svg>