<svg 
 xmlns="http://www.w3.org/2000/svg"
 xmlns:xlink="http://www.w3.org/1999/xlink"
 width="24px" height="24px">
<path fill-rule="evenodd"  fill="rgb(51, 51, 51)"
 d="M12.000,22.000 C17.523,22.000 22.000,17.523 22.000,12.000 L24.000,12.000 C24.000,18.627 18.627,24.000 12.000,24.000 C5.372,24.000 -0.000,18.627 -0.000,12.000 C-0.000,5.373 5.372,-0.000 12.000,-0.000 C15.078,-0.000 17.876,1.169 20.000,3.074 L20.000,1.000 C20.000,0.447 20.448,-0.000 21.000,-0.000 C21.552,-0.000 22.000,0.447 22.000,1.000 L22.000,6.000 C22.000,6.186 21.935,6.351 21.847,6.500 C21.935,6.649 22.000,6.814 22.000,7.000 C22.000,7.552 21.552,8.000 21.000,8.000 L15.000,8.000 C14.447,8.000 14.000,7.552 14.000,7.000 C14.000,6.447 14.447,6.000 15.000,6.000 L19.985,6.000 C18.160,3.575 15.268,2.000 12.000,2.000 C6.477,2.000 2.000,6.477 2.000,12.000 C2.000,17.523 6.477,22.000 12.000,22.000 Z"/>
</svg>