<svg 
 xmlns="http://www.w3.org/2000/svg"
 xmlns:xlink="http://www.w3.org/1999/xlink"
 width="42px" height="38px">
<path fill-rule="evenodd"  fill="rgb(41, 73, 116)"
 d="M36.000,38.000 L6.000,38.000 C2.686,38.000 -0.000,35.314 -0.000,32.000 L-0.000,4.000 L8.003,4.000 L8.000,8.000 L14.000,8.000 L14.001,4.000 L28.008,4.000 L28.008,7.998 L34.003,7.998 L34.003,4.000 L42.000,4.000 L42.000,32.000 C42.000,35.314 39.314,38.000 36.000,38.000 ZM40.000,10.000 L2.000,10.000 L2.000,33.000 C2.000,34.657 3.343,36.000 5.000,36.000 L37.000,36.000 C38.657,36.000 40.000,34.657 40.000,33.000 L40.000,10.000 ZM25.004,22.013 L21.989,22.013 L21.989,18.998 L25.004,18.998 L25.004,15.984 L27.985,15.984 L27.985,28.999 L25.004,28.999 L25.004,22.013 ZM15.003,22.013 L11.990,22.013 L11.990,18.998 L15.003,18.998 L15.003,15.984 L17.985,15.984 L17.985,28.999 L15.003,28.999 L15.003,22.013 ZM30.000,-0.000 L32.000,-0.000 L32.000,6.000 L30.000,6.000 L30.000,-0.000 ZM10.000,-0.000 L12.000,-0.000 L12.000,6.000 L10.000,6.000 L10.000,-0.000 Z"/>
</svg>