<svg 
 xmlns="http://www.w3.org/2000/svg"
 xmlns:xlink="http://www.w3.org/1999/xlink"
 width="326px" height="54px">
<path fill-rule="evenodd"  fill="none"
 d="M-0.000,-0.000 L326.000,-0.000 L326.000,53.999 L-0.000,53.999 L-0.000,-0.000 Z"/>
<path fill-rule="evenodd"  fill="rgb(255, 172, 25)"
 d="M43.476,53.985 C42.840,53.985 42.198,53.765 41.565,53.333 L27.137,43.466 L26.833,43.486 L12.442,53.331 C10.981,54.328 9.324,54.111 8.457,52.964 C8.067,52.449 7.684,51.548 8.068,50.187 L12.421,34.790 C12.452,34.632 12.353,34.248 12.248,34.120 L1.037,22.718 C0.104,21.766 -0.217,20.549 0.183,19.458 C0.581,18.367 1.611,17.653 2.937,17.526 L17.776,16.138 C17.917,16.112 18.224,15.890 18.301,15.748 L24.260,2.010 C24.804,0.756 25.829,0.007 27.003,0.007 C28.180,0.007 29.206,0.760 29.744,2.018 L35.711,15.762 C35.783,15.893 36.089,16.112 36.244,16.139 L51.072,17.522 C52.403,17.653 53.430,18.376 53.825,19.465 C54.220,20.555 53.900,21.772 52.967,22.718 L41.753,34.124 C41.652,34.248 41.553,34.632 41.584,34.795 L45.937,50.187 C46.322,51.548 45.938,52.449 45.549,52.964 C45.059,53.614 44.303,53.985 43.476,53.985 Z"/>
<path fill-rule="evenodd"  fill="rgb(255, 172, 25)"
 d="M111.476,53.985 C110.840,53.985 110.198,53.765 109.565,53.333 L95.137,43.466 L94.832,43.486 L80.442,53.331 C78.981,54.328 77.324,54.111 76.457,52.964 C76.067,52.449 75.684,51.548 76.068,50.187 L80.421,34.790 C80.452,34.632 80.353,34.248 80.248,34.120 L69.037,22.718 C68.103,21.766 67.783,20.549 68.183,19.458 C68.581,18.367 69.611,17.653 70.937,17.526 L85.776,16.138 C85.917,16.112 86.224,15.890 86.301,15.748 L92.260,2.010 C92.804,0.756 93.829,0.007 95.003,0.007 C96.180,0.007 97.206,0.760 97.744,2.018 L103.711,15.762 C103.783,15.893 104.089,16.112 104.244,16.139 L119.072,17.522 C120.403,17.653 121.430,18.376 121.825,19.465 C122.220,20.555 121.900,21.772 120.967,22.718 L109.753,34.124 C109.652,34.248 109.553,34.632 109.584,34.795 L113.938,50.187 C114.322,51.548 113.938,52.449 113.549,52.964 C113.059,53.614 112.303,53.985 111.476,53.985 Z"/>
<path fill-rule="evenodd"  fill="rgb(255, 172, 25)"
 d="M179.476,53.985 C178.840,53.985 178.198,53.765 177.565,53.333 L163.137,43.466 L162.832,43.486 L148.442,53.331 C146.981,54.328 145.324,54.111 144.457,52.964 C144.067,52.449 143.683,51.548 144.068,50.187 L148.421,34.790 C148.452,34.632 148.353,34.248 148.248,34.120 L137.037,22.718 C136.103,21.766 135.782,20.549 136.183,19.458 C136.581,18.367 137.611,17.653 138.937,17.526 L153.776,16.138 C153.917,16.112 154.224,15.890 154.301,15.748 L160.260,2.010 C160.804,0.756 161.828,0.007 163.002,0.007 C164.180,0.007 165.206,0.760 165.744,2.018 L171.711,15.762 C171.783,15.893 172.089,16.112 172.245,16.139 L187.072,17.522 C188.403,17.653 189.430,18.376 189.825,19.465 C190.220,20.555 189.900,21.772 188.967,22.718 L177.753,34.124 C177.652,34.248 177.553,34.632 177.584,34.795 L181.938,50.187 C182.322,51.548 181.938,52.449 181.549,52.964 C181.059,53.614 180.303,53.985 179.476,53.985 Z"/>
<path fill-rule="evenodd"  fill="rgb(255, 172, 25)"
 d="M247.476,53.985 C246.841,53.985 246.198,53.765 245.565,53.333 L231.137,43.466 L230.832,43.486 L216.442,53.331 C214.981,54.328 213.324,54.111 212.457,52.964 C212.067,52.449 211.683,51.548 212.068,50.187 L216.421,34.790 C216.452,34.632 216.353,34.248 216.248,34.120 L205.037,22.718 C204.104,21.766 203.783,20.549 204.183,19.458 C204.581,18.367 205.611,17.653 206.937,17.526 L221.776,16.138 C221.917,16.112 222.224,15.890 222.301,15.748 L228.260,2.010 C228.804,0.756 229.829,0.007 231.003,0.007 C232.180,0.007 233.206,0.760 233.744,2.018 L239.711,15.762 C239.783,15.893 240.089,16.112 240.245,16.139 L255.072,17.522 C256.403,17.653 257.430,18.376 257.825,19.465 C258.220,20.555 257.900,21.772 256.967,22.718 L245.753,34.124 C245.652,34.248 245.553,34.632 245.584,34.795 L249.938,50.187 C250.322,51.548 249.938,52.449 249.549,52.964 C249.059,53.614 248.303,53.985 247.476,53.985 Z"/>
<path fill-rule="evenodd"  fill="rgb(255, 172, 25)"
 d="M315.476,53.985 C314.841,53.985 314.198,53.765 313.565,53.333 L299.137,43.466 L298.832,43.486 L284.442,53.331 C282.982,54.328 281.324,54.111 280.457,52.964 C280.067,52.449 279.683,51.548 280.068,50.187 L284.421,34.790 C284.452,34.632 284.353,34.248 284.248,34.120 L273.037,22.718 C272.104,21.766 271.783,20.549 272.183,19.458 C272.581,18.367 273.611,17.653 274.937,17.526 L289.776,16.138 C289.917,16.112 290.225,15.890 290.301,15.748 L296.261,2.010 C296.804,0.756 297.828,0.007 299.003,0.007 C300.180,0.007 301.206,0.760 301.744,2.018 L307.711,15.762 C307.783,15.893 308.090,16.112 308.244,16.139 L323.072,17.522 C324.403,17.653 325.429,18.376 325.825,19.465 C326.221,20.555 325.900,21.772 324.967,22.718 L313.753,34.124 C313.652,34.248 313.553,34.632 313.584,34.795 L317.938,50.187 C318.322,51.548 317.938,52.449 317.549,52.964 C317.059,53.614 316.303,53.985 315.476,53.985 Z"/>
</svg>