<svg 
 xmlns="http://www.w3.org/2000/svg"
 xmlns:xlink="http://www.w3.org/1999/xlink"
 width="60px" height="60px">
<path fill-rule="evenodd"  fill="rgb(228, 228, 228)"
 d="M59.985,30.486 C59.985,46.781 46.775,59.991 30.481,59.991 C14.186,59.991 0.976,46.781 0.976,30.486 C0.976,14.191 14.186,0.982 30.481,0.982 C46.775,0.982 59.985,14.191 59.985,30.486 Z"/>
<path fill-rule="evenodd"  fill="rgb(57, 84, 106)"
 d="M47.940,26.799 L41.543,32.935 L35.146,26.799 C33.454,25.177 32.498,22.935 32.498,20.592 C32.498,18.230 34.225,16.121 36.576,15.897 C39.273,15.640 41.543,17.754 41.543,20.398 C41.543,17.754 43.812,15.640 46.509,15.897 C48.860,16.121 50.587,18.230 50.587,20.592 C50.587,22.935 49.631,25.177 47.940,26.799 ZM19.419,32.935 L13.022,26.799 C11.330,25.177 10.374,22.935 10.374,20.592 C10.374,18.230 12.101,16.121 14.452,15.897 C17.150,15.640 19.419,17.754 19.419,20.398 C19.419,17.754 21.688,15.640 24.385,15.897 C26.737,16.121 28.463,18.230 28.463,20.592 C28.463,22.935 27.507,25.177 25.816,26.799 L19.419,32.935 ZM42.601,47.568 L42.402,47.768 C39.759,50.429 36.066,52.076 32.010,52.076 L28.951,52.076 C24.805,52.076 21.040,50.338 18.360,47.568 C15.826,44.925 14.251,41.323 14.251,37.376 L46.710,37.376 C46.710,41.323 45.135,44.925 42.601,47.568 Z"/>
</svg>