<svg 
 xmlns="http://www.w3.org/2000/svg"
 xmlns:xlink="http://www.w3.org/1999/xlink"
 width="60px" height="60px">
<path fill-rule="evenodd"  fill="rgb(228, 228, 228)"
 d="M59.986,30.476 C59.986,46.771 46.777,59.980 30.482,59.980 C14.187,59.980 0.977,46.771 0.977,30.476 C0.977,14.181 14.187,0.971 30.482,0.971 C46.777,0.971 59.986,14.181 59.986,30.476 Z"/>
<path fill-rule="evenodd"  fill="rgb(57, 84, 106)"
 d="M43.210,28.261 C40.844,28.261 38.925,26.342 38.925,23.976 C38.925,21.610 40.844,19.691 43.210,19.691 C45.577,19.691 47.495,21.610 47.495,23.976 C47.495,26.342 45.577,28.261 43.210,28.261 ZM42.686,44.543 C42.686,45.544 41.876,46.353 40.876,46.353 C39.875,46.353 39.065,45.544 39.065,44.543 C39.065,41.557 35.135,39.036 30.481,39.036 C25.829,39.036 21.899,41.557 21.899,44.543 C21.899,45.544 21.089,46.353 20.089,46.353 C19.089,46.353 18.278,45.544 18.278,44.543 C18.278,39.425 23.639,35.415 30.481,35.415 C37.326,35.415 42.686,39.425 42.686,44.543 ZM17.753,28.261 C15.387,28.261 13.468,26.342 13.468,23.976 C13.468,21.610 15.387,19.691 17.753,19.691 C20.120,19.691 22.038,21.610 22.038,23.976 C22.038,26.342 20.120,28.261 17.753,28.261 Z"/>
</svg>