<svg 
 xmlns="http://www.w3.org/2000/svg"
 xmlns:xlink="http://www.w3.org/1999/xlink"
 width="60px" height="60px">
<path fill-rule="evenodd"  fill="rgb(251, 211, 97)"
 d="M59.985,30.480 C59.985,46.775 46.775,59.985 30.481,59.985 C14.186,59.985 0.976,46.775 0.976,30.480 C0.976,14.186 14.186,0.976 30.481,0.976 C46.775,0.976 59.985,14.186 59.985,30.480 Z"/>
<path fill-rule="evenodd"  fill="rgb(57, 84, 106)"
 d="M46.710,37.370 C46.710,41.317 45.135,44.920 42.601,47.563 L42.402,47.762 C39.759,50.423 36.065,52.070 32.010,52.070 L28.951,52.070 C24.805,52.070 21.040,50.332 18.360,47.563 C15.826,44.920 14.251,41.317 14.251,37.370 L46.710,37.370 Z"/>
<path fill-rule="evenodd"  fill="rgb(228, 98, 82)"
 d="M47.940,26.793 L41.543,32.929 L35.146,26.793 C33.454,25.171 32.498,22.930 32.498,20.586 C32.498,18.224 34.225,16.115 36.576,15.891 C39.273,15.634 41.543,17.748 41.543,20.392 C41.543,17.748 43.812,15.634 46.509,15.891 C48.860,16.115 50.587,18.224 50.587,20.586 C50.587,22.930 49.631,25.171 47.940,26.793 ZM42.601,47.563 L42.402,47.762 C39.759,50.423 36.065,52.070 32.010,52.070 L28.951,52.070 C24.805,52.070 21.040,50.332 18.360,47.563 C18.415,47.490 18.487,47.418 18.559,47.345 C21.221,44.684 24.896,43.037 28.951,43.037 L32.010,43.037 C36.192,43.037 39.940,44.775 42.601,47.563 ZM19.419,32.929 L13.022,26.793 C11.330,25.171 10.374,22.930 10.374,20.586 C10.374,18.224 12.101,16.115 14.452,15.891 C17.149,15.634 19.419,17.748 19.419,20.392 C19.419,17.748 21.688,15.634 24.385,15.891 C26.736,16.115 28.463,18.224 28.463,20.586 C28.463,22.930 27.507,25.171 25.816,26.793 L19.419,32.929 Z"/>
</svg>