<svg xmlns="http://www.w3.org/2000/svg" width="48" height="48">
    <path fill="none" d="M0 0h48v48H0V0z" opacity=".502"/>
    <path fill="#FF5A12" fill-rule="evenodd" d="M24.499 46.098c-11.929 0-21.599-9.67-21.599-21.6 0-11.929 9.67-21.599 21.599-21.599 11.93 0 21.601 9.67 21.601 21.599 0 11.93-9.671 21.6-21.601 21.6zm0-41.615c-11.053 0-20.015 8.961-20.015 20.015 0 11.055 8.962 20.016 20.015 20.016 11.055 0 20.016-8.961 20.016-20.016 0-11.054-8.961-20.015-20.016-20.015zm1.796 18.888c1.454.469 3.593 1.085 3.593 3.976 0 2.553-1.635 3.997-4.017 4.359v1.615c0 .383-.12.618-.585.618h-1.574c-.465 0-.586-.235-.586-.618v-1.657c-2.099-.468-4.036-1.935-4.036-4.359 0-.489.121-.595.585-.595h1.958c.464 0 .686.064.727.595.02.276.121.553.383.872.404.51 1.231.701 1.978.701 1.09 0 1.978-.255 1.978-1.446 0-1.19-1.796-1.211-3.512-1.785-2.039-.68-3.916-1.531-3.916-4.231 0-2.382 1.756-3.7 3.855-4.104v-1.637c0-.382.121-.616.586-.616h1.574c.465 0 .585.234.585.616v1.701c1.958.426 3.674 1.658 3.674 3.848 0 .511-.121.596-.585.596h-1.978c-.384 0-.444-.298-.545-.575-.081-.233-.182-.403-.424-.637-.384-.383-1.11-.574-1.716-.574-.666 0-1.776.276-1.776 1.233 0 1.297 2.967 1.765 3.774 2.104z"/>
</svg>
