<svg xmlns="http://www.w3.org/2000/svg" width="48" height="48">
    <path fill="none" d="M0 0h48v48H0V0z" opacity=".502"/>
    <path fill="#666" fill-rule="evenodd" d="M35.676 45.993H12.323c-1.842 0-3.336-1.512-3.336-3.375V5.379c0-1.864 1.494-3.374 3.336-3.374h23.353c1.842 0 3.336 1.51 3.336 3.374v37.239c0 1.863-1.494 3.375-3.336 3.375zm1.816-40.209a2.27 2.27 0 0 0-2.262-2.277H12.769a2.27 2.27 0 0 0-2.262 2.277v36.428a2.27 2.27 0 0 0 2.262 2.277H35.23a2.27 2.27 0 0 0 2.262-2.277V5.784zm-11.986 4.233h-4.008a1.003 1.003 0 1 1 0-2.007h4.008a1.003 1.003 0 0 1 0 2.007zM23.5 35.994a3 3 0 1 1-.001 6 3 3 0 0 1 .001-6z"/>
</svg>
