<svg xmlns="http://www.w3.org/2000/svg" width="48" height="48">
    <path fill="none" d="M0 0h48v48H0V0z" opacity=".502"/>
    <path fill="#666" fill-rule="evenodd" d="M42.006 39.198c-.298 2.398-9.843 4.649-17.506 4.8-7.684.151-16.608-1.197-17.506-4.8.035-.484 0-9.6 0-9.6.087-1.175-.001-19.782-.001-19.782 0-3.997 9.842-5.818 17.506-5.818 7.665 0 17.507 1.821 17.507 5.818v19.782c-.002.017-.015.034-.018.051h.018v9.549zm-17.506 3.2c7.27.05 15.694-2.393 15.914-3.2v-7.973c-3.071 1.705-10.038 3.058-15.914 3.173-6.049.119-12.849-.697-15.915-2.805v7.605c.218.786 7.451 3.142 15.915 3.2zm-.016-9.6l.083-.001c7.126.034 15.31-2.305 15.809-3.151L8.587 29.6c.23.787 7.448 3.137 15.897 3.198zm.019-27.248c-8.387-.105-16.074 2.354-15.918 4.848.292.823 7.527 3.2 15.915 3.2 8.387 0 15.623-2.377 15.914-3.2-.043-2.423-7.524-4.743-15.911-4.848zm-.003 9.648c-4.855-.039-12.289-.748-15.915-3.2v8c.218.785 7.451 3.2 15.915 3.2 8.454 0 15.685-2.391 15.914-3.2v-8c-4.123 2.352-9.766 3.25-15.914 3.2zm0 9.6c-4.855 0-13.333-.499-15.915-3.2v8h31.829v-8c-3.625 2.852-11.058 3.2-15.914 3.2z"/>
</svg>
