<svg xmlns="http://www.w3.org/2000/svg" width="48" height="48">
    <path fill="none" d="M0 0h48v48H0V0z" opacity=".502"/>
    <path fill="#666" fill-rule="evenodd" d="M43.5 41.598h-39c-2.485 0-4.5-2.055-4.5-4.591V10.99c0-2.536 2.015-4.592 4.5-4.592h39c2.485 0 4.5 2.056 4.5 4.592v26.017c0 2.536-2.015 4.591-4.5 4.591zm2.888-29.588c0-1.792-2.116-3.997-3.838-3.997H4.17c-1.722 0-2.558.873-2.558 2.665v3.72h44.776V12.01zm0 7.188H1.612v18.121c0 1.791.836 2.664 2.558 2.664h39.659c1.722 0 2.559-.873 2.559-2.664V19.198zm-7.707 14.868a3.157 3.157 0 0 1-3.084-2.453c-.307 1.403-1.526 2.453-2.99 2.453-1.695 0-3.069-1.406-3.069-3.139 0-1.734 1.374-3.14 3.069-3.14 1.464 0 2.683 1.05 2.99 2.453a3.157 3.157 0 0 1 3.084-2.453c1.748 0 3.165 1.406 3.165 3.14 0 1.733-1.417 3.139-3.165 3.139z"/>
</svg>
